<svg id="Capa_1" enable-background="new 0 0 512 512" height="512" viewBox="0 0 512 512" width="512" xmlns="http://www.w3.org/2000/svg"><g><g><path d="m47.801 0h224.451v512h-224.451z" fill="#eaf2fe"/></g><g><path d="m256 0h208.199v512h-208.199z" fill="#d6e7fe"/></g><g><path d="m256 190.87h136v30h-136z" fill="#8bbafd"/></g><g><path d="m146.931 132.38-34.659-34.659 21.213-21.213 13.446 13.445 30.505-30.505 21.213 21.213z" fill="#ace233"/></g><g><path d="m146.931 332.898-34.659-34.657 21.213-21.214 13.446 13.446 30.505-30.506 21.213 21.213z" fill="#ace233"/></g><g><path d="m146.931 232.64-34.659-34.659 21.213-21.213 13.446 13.445 30.505-30.505 21.213 21.213z" fill="#ace233"/></g><g><path d="m256 90.61h136v30h-136z" fill="#8bbafd"/></g><g><path d="m256 391.39h136v30h-136z" fill="#8bbafd"/></g><g><path d="m196.221 452h-91.221v-91.221h91.221z" fill="#accefd"/></g><g><path d="m256 291.13h136v30h-136z" fill="#8bbafd"/></g></g></svg>